<svg viewBox="0 0 860 588" xmlns="http://www.w3.org/2000/svg" role="img" aria-labelledby="ttl dsc">
  <title id="ttl">kvm-pilot driver-plugin architecture</title>
  <desc id="dsc">A layered stack. Consumers — the CLI, the KVMClient facade, and ScreenAnalyzer — talk to a KVMDriver capability-protocol interface, resolved by a driver registry into concrete drivers: the PiKVM family today, plus Redfish, JetKVM, and a Fake driver to add. Drivers run over pluggable transports. Safety, config, errors and the vision backends are shared cross-cutting concerns. Purple marks new components to add; grey marks code that exists today and is refactored in place.</desc>
  <style>
    text{font-family:var(--font-sans,ui-sans-serif,system-ui,sans-serif);}
    .card{fill:#fff;stroke:#d3d1c7;stroke-width:1.5;}
    .band{fill:#f1efe8;stroke:#d3d1c7;stroke-width:1;}
    .purple{fill:#eeedfe;stroke:#534ab7;stroke-width:1.75;}
    .pill{fill:#534ab7;}
    .h{fill:#2c2c2a;font-weight:500;font-size:18px;}
    .sub{fill:#5f5e5a;font-weight:400;font-size:12px;}
    .t{fill:#2c2c2a;font-weight:500;font-size:13px;}
    .ts{fill:#5f5e5a;font-weight:400;font-size:11px;}
    .tp{fill:#3c3489;font-weight:500;font-size:13px;}
    .monop{font-family:var(--font-mono,ui-monospace,monospace);fill:#3c3489;font-weight:400;font-size:11.5px;}
    .lab{fill:#888780;font-weight:500;font-size:11px;}
    .pillt{fill:#fff;font-size:11px;font-weight:500;}
    .cn{stroke:#888780;}
    .mkn{fill:#888780;}
    @media (prefers-color-scheme:dark){
      .card{fill:#2a2723;stroke:#4a4641;}
      .band{fill:#211f1b;stroke:#4a4641;}
      .purple{fill:#3c3489;stroke:#afa9ec;}
      .h{fill:#f1efe8;} .sub{fill:#b4b2a9;} .t{fill:#f1efe8;} .ts{fill:#b4b2a9;} .lab{fill:#908d85;}
      .tp{fill:#cecbf6;} .monop{fill:#cecbf6;}
    }
  </style>

  <text x="30" y="30" class="h">kvm-pilot — driver-plugin architecture</text>
  <text x="30" y="50" class="sub">Purple = new components to add · grey = exists today, refactored in place.</text>

  <defs>
    <marker id="ar" markerWidth="9" markerHeight="9" refX="6" refY="3" orient="auto"><path class="mkn" d="M0,0 L6,3 L0,6 Z"/></marker>
  </defs>

  <text x="30" y="78" class="lab">Consumers</text>
  <g>
    <rect class="card" x="30" y="84" width="250" height="54" rx="4"/>
    <text x="46" y="108" class="t">CLI</text><text x="46" y="126" class="ts">argparse · --driver flag</text>
    <rect class="card" x="305" y="84" width="250" height="54" rx="4"/>
    <text x="321" y="108" class="t">KVMClient (facade)</text><text x="321" y="126" class="ts">resolves + delegates to driver</text>
    <rect class="card" x="580" y="84" width="250" height="54" rx="4"/>
    <text x="596" y="108" class="t">ScreenAnalyzer</text><text x="596" y="126" class="ts">needs Video capability only</text>
  </g>
  <line x1="430" y1="138" x2="430" y2="160" class="cn" stroke-width="1.5" marker-end="url(#ar)"/>

  <text x="30" y="156" class="lab">Driver interface — the plugin seam</text>
  <rect class="purple" x="30" y="162" width="800" height="60" rx="4"/>
  <rect class="pill" x="768" y="170" width="38" height="16" rx="8"/><text x="787" y="182" class="pillt" text-anchor="middle">new</text>
  <text x="430" y="188" class="tp" text-anchor="middle">KVMDriver — capability protocols, implement only what the hardware has</text>
  <text x="430" y="209" class="monop" text-anchor="middle">Power · HID · Video · VirtualMedia · GPIO · Events · SystemInfo</text>
  <line x1="430" y1="222" x2="430" y2="244" class="cn" stroke-width="1.5" marker-end="url(#ar)"/>

  <text x="30" y="240" class="lab">Registry</text>
  <rect class="purple" x="30" y="246" width="800" height="50" rx="4"/>
  <rect class="pill" x="768" y="253" width="38" height="16" rx="8"/><text x="787" y="265" class="pillt" text-anchor="middle">new</text>
  <text x="430" y="268" class="tp" text-anchor="middle">Driver registry</text>
  <text x="430" y="286" class="monop" text-anchor="middle">make_driver(kind) · entry-points (kvm_pilot.drivers) · autodetect(host)</text>
  <line x1="430" y1="296" x2="430" y2="318" class="cn" stroke-width="1.5" marker-end="url(#ar)"/>

  <text x="30" y="314" class="lab">Drivers</text>
  <g>
    <rect class="card" x="30" y="320" width="185" height="62" rx="4"/>
    <text x="44" y="343" class="t">PiKVMDriver</text><text x="44" y="360" class="ts">+ GLKVM · BliKVM</text><text x="44" y="375" class="ts">today's code, refactored</text>
    <rect class="purple" x="235" y="320" width="185" height="62" rx="4"/>
    <text x="249" y="343" class="tp">RedfishDriver</text><text x="249" y="360" class="ts">iDRAC · iLO · OpenBMC</text><text x="249" y="375" class="ts">huge BMC coverage</text>
    <rect class="purple" x="440" y="320" width="185" height="62" rx="4"/>
    <text x="454" y="343" class="tp">JetKVMDriver</text><text x="454" y="360" class="ts">WS JSON-RPC</text><text x="454" y="375" class="ts">community</text>
    <rect class="purple" x="645" y="320" width="185" height="62" rx="4"/>
    <text x="659" y="343" class="tp">FakeDriver</text><text x="659" y="360" class="ts">tests / CI</text><text x="659" y="375" class="ts">smoke harness (#2)</text>
  </g>
  <line x1="430" y1="382" x2="430" y2="404" class="cn" stroke-width="1.5" marker-end="url(#ar)"/>

  <text x="30" y="400" class="lab">Transport</text>
  <g>
    <rect class="card" x="30" y="406" width="250" height="52" rx="4"/>
    <text x="46" y="429" class="t">HttpTransport + Auth</text><text x="46" y="447" class="ts">urllib · retry · redaction</text>
    <rect class="card" x="305" y="406" width="250" height="52" rx="4"/>
    <text x="321" y="429" class="t">WS transport</text><text x="321" y="447" class="ts">JSON-RPC devices</text>
    <rect class="card" x="580" y="406" width="250" height="52" rx="4"/>
    <text x="596" y="429" class="t">IPMI / ipmitool</text><text x="596" y="447" class="ts">legacy BMCs (optional)</text>
  </g>

  <rect class="band" x="30" y="482" width="800" height="46" rx="8"/>
  <text x="430" y="502" class="t" text-anchor="middle">Cross-cutting and shared — one implementation, all drivers</text>
  <text x="430" y="519" class="ts" text-anchor="middle">SafetyPolicy (gates destructive ops) · Config(driver=) · Errors · Vision backends, already pluggable</text>
</svg>
